<?xml version="1.0"?>

<!DOCTYPE svg PUBLIC '-//W3C//DTD SVG 1.0//EN' 'http://www.w3.org/TR/2001/REC-SVG-20010904/DTD/svg10.dtd'>
<svg fill-opacity="1" xmlns:xlink="http://www.w3.org/1999/xlink" color-rendering="auto" color-interpolation="auto" stroke="black" text-rendering="auto" stroke-linecap="square" width="375" stroke-miterlimit="10" stroke-opacity="1" shape-rendering="auto" fill="black" stroke-dasharray="none" font-weight="normal" stroke-width="1" height="430" xmlns="http://www.w3.org/2000/svg" font-family="&apos;Dialog&apos;" font-style="normal" stroke-linejoin="miter" font-size="12" stroke-dashoffset="0" image-rendering="auto">
  <!--Generated by Marvin with Batik SVG Generator
MolSource:
<?xml version="1.0" encoding="MacRoman"?><cml xmlns="http://www.chemaxon.com" xmlns:xsi="http://www.w3.org/2001/XMLSchema-instance" xsi:schemaLocation="http://www.chemaxon.com/marvin/help/formats/schema/mrvSchema_6_2_0.xsd" version="ChemAxon file format v6.2, generated by v6.2.0">
<MDocument atomSetFont="0:Arial-PLAIN-18" bondSetLineThickness="0:0.06"><MChemicalStruct><molecule molID="m1"><atomArray atomID="a1 a2 a3 a4 a5" elementType="C C C N O" x2="-0.3849999713897705 -1.9249999713897705 -1.9249999713897705 -0.3849999713897705 -3.013944414417054" y2="2.8050000858306885 2.8050000858306885 1.2650000858306885 1.2650000858306885 0.17605564280340524"></atomArray><bondArray><bond id="b1" atomRefs2="a1 a2" order="1"></bond><bond id="b2" atomRefs2="a4 a1" order="1"></bond><bond id="b3" atomRefs2="a2 a3" order="1"></bond><bond id="b4" atomRefs2="a3 a4" order="1"></bond><bond id="b5" atomRefs2="a3 a5" order="2"></bond></bondArray></molecule></MChemicalStruct></MDocument>
</cml>-->
  <defs id="genericDefs" />
  <g>
    <defs id="defs1">
      <clipPath clipPathUnits="userSpaceOnUse" id="clipPath1">
        <path d="M0 0 L375 0 L375 430 L0 430 L0 0 Z" />
      </clipPath>
      <clipPath clipPathUnits="userSpaceOnUse" id="clipPath2">
        <path d="M52.125 280 C65.58694458007812 280 76.5 292.7598876953125 76.5 308.5 L76.5 350.29998779296875 C76.5 366.0401306152344 65.58694458007812 378.79998779296875 52.125 378.79998779296875 L29.375 378.79998779296875 C15.91305923461914 378.79998779296875 5 366.0401306152344 5 350.29998779296875 L5 308.5 C5 292.7598876953125 15.91305923461914 280 29.375 280 ZM0 0 L0 430 L375 430 L375 266.6539001464844 L375 266.6539001464844 C366.8687744140625 274.56011962890625 352.64166259765625 279.79998779296875 336.45001220703125 279.79998779296875 L293.75 279.79998779296875 C268.48297119140625 279.79998779296875 248 267.0401306152344 248 251.3000030517578 L248 209.5 C248 193.7598876953125 268.48297119140625 181 293.75 181 L336.45001220703125 181 C352.6416931152344 181 366.8687744140625 186.23988342285156 375 194.14610290527344 L375 194.14610290527344 L375 0 Z" />
      </clipPath>
    </defs>
    <g text-rendering="optimizeLegibility" font-size="84" shape-rendering="geometricPrecision" font-family="&apos;Arial&apos;">
      <text xml:space="preserve" x="248" y="257" clip-path="url(#clipPath1)" stroke="none">NH
      </text>
      <text xml:space="preserve" x="5" y="356" clip-path="url(#clipPath1)" stroke="none">O
      </text>
      <line stroke-linecap="round" clip-path="url(#clipPath2)" fill="none" x1="278.56051860077304" x2="137.42957021166032" y1="86.30456182879692" stroke-linejoin="bevel" y2="86.30456182879692" stroke-width="5.498608589172363" />
      <line stroke-linecap="round" clip-path="url(#clipPath2)" fill="none" x1="278.56051860077304" x2="278.56051860077304" y1="188.5446372526495" stroke-linejoin="bevel" y2="86.30456182879692" stroke-width="5.498608589172363" />
      <line stroke-linecap="round" clip-path="url(#clipPath2)" fill="none" x1="137.42957021166032" x2="137.42957021166032" y1="86.30456182879692" stroke-linejoin="bevel" y2="227.4355102179096" stroke-width="5.498608589172363" />
      <line stroke-linecap="round" clip-path="url(#clipPath2)" fill="none" x1="137.42957021166032" x2="239.66964563551292" y1="227.4355102179096" stroke-linejoin="bevel" y2="227.4355102179096" stroke-width="5.498608589172363" />
      <line stroke-linecap="round" clip-path="url(#clipPath2)" fill="none" x1="155.39260732708175" x2="74.11643812814083" y1="227.43551021790967" stroke-linejoin="bevel" y2="308.7116794168506" stroke-width="5.498608589172363" />
      <line stroke-linecap="round" clip-path="url(#clipPath2)" fill="none" x1="137.42957021166032" x2="56.15340101271938" y1="209.47247310248818" stroke-linejoin="bevel" y2="290.74864230142913" stroke-width="5.498608589172363" />
    </g>
  </g>
</svg>
